/* XPM */
static char *block_resource_xpm[] = {
/* width height num_colors chars_per_pixel */
"    32    32        8            1",
/* colors */
"` c None",
". c #000000",
"# c #f0f0f0",
"a c #d4d4d4",
"b c #000000",
"c c #000000",
"d c #000000",
"e c #000000",
/* pixels */
"````````````````````````````````",
"````````````````````````````````",
"````````````````````````````````",
"````````````````````````````````",
"````````````````````````````````",
"````````````````````````````````",
"````````````````````````````````",
"````````````````````````````````",
"``````....................``````",
"`````.####################.`````",
"````.######################.````",
"```.########################.```",
"``............................``",
"``.##########################.a`",
"``.##########################.a`",
"``.##########################.a`",
"``.##########################.a`",
"``............................a`",
"``a.########################.a``",
"```a.######################.a```",
"````a.####################.a````",
"`````a....................a`````",
"``````aaaaaaaaaaaaaaaaaaaa``````",
"````````````````````````````````",
"````````````````````````````````",
"````````````````````````````````",
"````````````````````````````````",
"````````````````````````````````",
"````````````````````````````````",
"````````````````````````````````",
"````````````````````````````````",
"````````````````````````````````"
};
