/* XPM */
static char *method_big_xpm[] = {
/* width height num_colors chars_per_pixel */
"    32    32        8            1",
/* colors */
"` c None",
". c #000000",
"# c #dce149",
"a c #000000",
"b c #000000",
"c c #000000",
"d c #000000",
"e c #000000",
/* pixels */
"``````````````````..............",
"``````````````````.```..```.```.",
"``````````````````.`.`..`.`.`.`.",
"`............`````.```..`.`.`.`.",
"`.###########.##``.`...````.```.",
"`.############.#``...`..........",
"`.#############.````````````````",
"`.##############....````````````",
"`.#############.```.````````````",
"`.############.#```.````````````",
"`.###########.##```.````````````",
"`............``````.````````````",
"```````````````````.````````````",
"```````````````````.````````````",
"```````.............````````````",
"```````.````````````````````````",
"```````.````````````````````````",
"```````.````````````````````````",
"```````.````...............`````",
"```````.````.#############.`````",
"```````.````.#############.`````",
"```````.````.#############.`````",
"```````......#############....``",
"````````````.#############.`````",
"````````````.#############.`````",
"````````````.#############.`````",
"````````````...............`````",
"````````````````````````````````",
"````````````````````````````````",
"````````````````````````````````",
"````````````````````````````````",
"````````````````````````````````"
};
