/* XPM */
static const char* const image_faild_data[] = { 
"16 16 4 1",
". c None",
"# c #000000",
"b c #7f787f",
"a c #ad4a4a",
"................",
"......#####.###.",
"....##aaaaa#aaa#",
"...#aaaaaaaaaaa#",
"..#aaaa###aaaa#b",
"..#aa##b#aaaa##.",
".#aaa#b#aaaa#aa#",
".#aa#b#aaaa##aa#",
".#aa##aaaa#b#aa#",
".#aa#aaaa#b.#aa#",
".#aaaaaa#b.#aaa#",
"..#aaaa#b.##aa#b",
".#aaaa####aaaa#b",
".#aaa#aaaaaaa#b.",
"..####aaaaa##b..",
"...bbb#####bb..."};
