/* XPM */
static const char* const image_new_data[] = { 
"16 16 3 1",
". c None",
"# c #000000",
"a c #ffffff",
"................",
"................",
"...#######......",
"...#aaaaa##.....",
"...#aaaaa#a#....",
"...#aaaaa####...",
"...#aaaaaaaa#...",
"...#aaaaaaaa#...",
"...#aaaaaaaa#...",
"...#aaaaaaaa#...",
"...#aaaaaaaa#...",
"...#aaaaaaaa#...",
"...#aaaaaaaa#...",
"...##########...",
"................",
"................"};
