/* XPM */
static const char* const image_open_data[] = { 
"16 16 5 1",
". c None",
"# c #000000",
"c c #c0c0c0",
"b c #ffff00",
"a c #ffffff",
"................",
"................",
".#####..........",
"#ababa######....",
"#bababaababa#...",
"#abababbabab#...",
"#bababaa#######.",
"#aba####cbcbcbc#",
"#ba#cbccbcbcbcb#",
"#ab#bcbbcbcbcb#.",
"#b#bcbccbcbcbc#.",
"#a#cbcbbcbcbc#..",
"##cbcbccbcbcb#..",
".############...",
"................",
"................"};
