/* XPM */
static const char* const image_options_data[] = { 
"16 16 5 1",
"b c #000000",
"# c #0000ff",
". c #7f7f7f",
"c c #bfbfbf",
"a c #ffffff",
"................",
".#############ab",
".bbbbbbbbbbbbbbb",
".caaaacccccccccb",
".acccc.aaacaaacb",
".acccc.ccc.ccc.b",
".acccc.aaaaaaa.b",
".acccccccccccc.b",
".acccccbcccccc.b",
".accbcbccccccc.b",
".acccbcccccccc.b",
".acccccbcccccc.b",
".accbcbccccccc.b",
".acccbcccccccc.b",
".a.............b",
".bbbbbbbbbbbbbbb"};
