/* XPM */
static const char* const image_pause_data[] = { 
"16 16 4 1",
". c None",
"# c #000000",
"a c #4aad81",
"b c #7f787f",
"................",
"...####..####...",
"...#aa#b.#aa#b..",
"...#aa#b.#aa#b..",
"...#aa#b.#aa#b..",
"...#aa#b.#aa#b..",
"...#aa#b.#aa#b..",
"...#aa#b.#aa#b..",
"...#aa#b.#aa#b..",
"...#aa#b.#aa#b..",
"...#aa#b.#aa#b..",
"...#aa#b.#aa#b..",
"...#aa#b.#aa#b..",
"...#aa#b.#aa#b..",
"...####b.####b..",
"....bbbb..bbbb.."};
