/* XPM */
static const char* const image_about_data[] = { 
"16 16 5 1",
". c None",
"# c #000000",
"a c #36ce13",
"b c #969696",
"c c #ce3f13",
".#..............",
"..###...........",
"...#a###........",
"....#aaa##......",
".....##aa###....",
"......##aaa##...",
".......#aaaa#b..",
"......##aaaa#b..",
"...#########b...",
"..#cccc#bbbb....",
"..#cccc##.......",
"..#ccccc##......",
"...##ccccc#.....",
"....b####cc#....",
"......bbb####...",
"..........bbb#.."};
