/* XPM */
static const char* const image_circle_green_data[] = { 
"16 16 57 1",
". c None",
"# c #000000",
"e c #4aad81",
"J c #4aae82",
"2 c #4bad82",
"A c #4baf83",
"f c #4cae82",
"a c #4dae83",
"g c #4faf84",
"B c #4fb085",
"b c #50b085",
"K c #51af82",
"1 c #51b086",
"m c #51b186",
"h c #52b086",
"W c #52b187",
"t c #53b187",
"C c #53b388",
"Z c #54b084",
"Y c #55af83",
"c c #55b288",
"N c #56b389",
"L c #57b084",
"i c #57b289",
"n c #57b389",
"V c #58b185",
"0 c #58b38a",
"d c #5bb58d",
"O c #5cb48c",
"u c #5cb58d",
"D c #5db58d",
"o c #5eb58d",
"j c #60b78f",
"X c #61b68f",
"P c #61b690",
"T c #62b282",
"E c #66ba93",
"v c #68bb95",
"p c #6bba94",
"l c #6fbc98",
"k c #71be9a",
"S c #73b995",
"U c #74ba92",
"Q c #75ba96",
"F c #78be9b",
"w c #7bc09f",
"R c #7ebb98",
"s c #7f787f",
"M c #8ae4c0",
"I c #95be9d",
"z c #96bf9f",
"G c #b4d7c0",
"q c #bfead0",
"r c #dcfde7",
"H c #e0e9d2",
"x c #eafff4",
"y c #ffffff",
"................",
"................",
"......####......",
"....##abcd##....",
"...#efghijkl#...",
"...#eamnopqr#s..",
"..#eegtuvwxyz#..",
"..#eABCDEFGHI#s.",
"..#JKLMNOPQRS#s.",
"..#JTUVWiDPXX#s.",
"...#KYZBhc00#ss.",
"...#JJAag1hh#s..",
"....##e2fa##ss..",
".....s####sss...",
"......sssss.....",
"................"};
