/* XPM */
static const char* const image_delete_data[] = { 
"16 16 5 1",
". c None",
"# c #000000",
"c c #136368",
"b c #4aa7ad",
"a c #7dd2d7",
".......#........",
"......##........",
"..###########...",
"..#abbbccccc#...",
"..###########...",
"...#abbbccc#....",
"...#abbbccc#....",
"...#a###c#c#....",
"...#abbbccc#....",
"...#a###c#c#....",
"...#abbbccc#....",
"...#a###c#c#....",
"...#abbbccc#....",
"...#a###c#c#....",
"...#abbbccc#....",
"....#######....."};
