/* XPM */
static const char* const image_open_d_data[] = { 
"16 16 3 1",
". c None",
"# c #606060",
"a c #ffffff",
"................",
"................",
".#####..........",
"#.aaaa######....",
"#a.....aaaaa#...",
"#a..........#a..",
"#a......#######.",
"#a..####.aaaaaa#",
"#a.#.aaaa......#",
"#a.#a.........#.",
"#a#.a.........#a",
"#a#a.........#.a",
"##.a.........#a.",
"#############.a.",
".aaaaaaaaaaaaa..",
"................"};
