/* XPM */
static const char* const image_pause_d_data[] = { 
"16 16 3 1",
". c None",
"# c #606060",
"a c #ffffff",
"................",
"...####..####...",
"...#..#a.#..#a..",
"...#..#a.#..#a..",
"...#..#a.#..#a..",
"...#..#a.#..#a..",
"...#..#a.#..#a..",
"...#..#a.#..#a..",
"...#..#a.#..#a..",
"...#..#a.#..#a..",
"...#..#a.#..#a..",
"...#..#a.#..#a..",
"...#..#a.#..#a..",
"...#..#a.#..#a..",
"...####a.####a..",
"....aaaa..aaaa.."};
