/* XPM */
static const char* const image_stop_data[] = { 
"16 16 4 1",
". c None",
"# c #000000",
"b c #7f787f",
"a c #ad4a4a",
"................",
".#############..",
".#aaaaaaaaaaa#b.",
".#aaaaaaaaaaa#b.",
".#aaaaaaaaaaa#b.",
".#aaaaaaaaaaa#b.",
".#aaaaaaaaaaa#b.",
".#aaaaaaaaaaa#b.",
".#aaaaaaaaaaa#b.",
".#aaaaaaaaaaa#b.",
".#aaaaaaaaaaa#b.",
".#aaaaaaaaaaa#b.",
".#aaaaaaaaaaa#b.",
".#############b.",
"..bbbbbbbbbbbbb.",
"................"};
