/* XPM */
static const char *xpm_ac_data[] = {
/* width height num_colors chars_per_pixel */
"     8    11        8            1",
/* colors */
"` c None",
". c #808080",
"# c #00ffff",
"a c #000000",
"b c #000000",
"c c #000000",
"d c #000000",
"e c #000000",
/* pixels */
"````.```",
"```.#.``",
"``.###.`",
"`.#####a",
".#####aa",
"..###a.a",
".#.#a..a",
".##a..a`",
"`.#a.a``",
"``.aa```",
"```a````"
};
