/* XPM */
static const char* const image_delete_d_data[] = { 
"16 16 3 1",
". c None",
"# c #606060",
"a c #ffffff",
".......#........",
"......##a.......",
"..###########...",
"..#aaaaaaaaa#a..",
"..###########a..",
"...#aaaaaaa#aa..",
"...#a###.#.#a...",
"...#a.aaa.a#a...",
"...#a###.#.#a...",
"...#a.aaa.a#a...",
"...#a###.#.#a...",
"...#a.aaa.a#a...",
"...#a###.#.#a...",
"...#a.aaa.a#a...",
"....#######.a...",
".....aaaaaaa...."};
