/* XPM */
static const char* const image_exit_data[] = { 
"16 16 2 1",
". c None",
"# c #136368",
"................",
"................",
"................",
"................",
"....##.....##...",
"....###...###...",
".....###.###....",
"......#####.....",
".......###......",
"......#####.....",
".....###.###....",
"....###...###...",
"....##.....##...",
"................",
"................",
"................"};
