/* XPM */
static const char* const image_ok_data[] = { 
"16 16 4 1",
". c None",
"# c #000000",
"a c #4aad81",
"b c #7f787f",
"................",
"................",
".............##.",
"............#aa#",
"...........#aaa#",
"..........#aaaa#",
".##.....##aaaaa#",
"#aa#...#aaaaaa#.",
"#aaa#.#aaaaaa#b.",
"#aaaa#aaaaaa#b..",
"#aaaaaaaaa##b...",
".#aaaaaaaa#b....",
".b#aaaaa##......",
"..#aaaa#bb......",
"...####b........",
"....bbb........."};
