/* XPM */
static const char* const image_start_data[] = { 
"16 16 4 1",
". c None",
"# c #000000",
"a c #4aad81",
"b c #7f787f",
"....#...........",
"....##..........",
"....#a#.........",
"....#aa#........",
"....#aaa#.......",
"....#aaaa#......",
"....#aaaaa#.....",
"....#aaaaaa#....",
"....#aaaaa#bb...",
"....#aaaa#bb....",
"....#aaa#bb.....",
"....#aa#bb......",
"....#a#bb.......",
"....##bb........",
"....#bb.........",
"................"};
