/* XPM */
static char *generate_setup_xpm[] = {
/* width height num_colors chars_per_pixel */
"    16    15   16            1",
/* colors */
". c #000000000000",
"# c #800000000000",
"a c #000080000000",
"b c #800080000000",
"c c #000000008000",
"d c #800000008000",
"e c #000080008000",
"f c #800080008000",
"g c #c000c000c000",
"h c #ff0000000000",
"i c #0000ff000000",
"j c #ff00ff000000",
"k c #00000000ff00",
"l c #ff000000ff00",
"m c #0000ff00ff00",
"n c #ff00ff00ff00",
/* pixels */
"kkkkkkkkkkkkkkkk",
"kkkkkkkkkkkkkkkk",
"kkkkkggjjjgkkkkk",
"kkkkgjjjjjjgkkkk",
"kkkgjjgkkggjgkkk",
"kkfjjgkkkkgjgkkk",
"kkgjgkkkkkkkkkkk",
"kkgjgkkkkkkkkkkk",
"kkjjkkkkjjjjjkkk",
"kkjjkkkkjjjjgkkk",
"kkjjgkkkkkgjgkkk",
"kkgjggkkfggjgkkk",
"kkkgjjjjjjjjgkkk",
"kkkkgjjjjggkkkkk",
"kkkkkkkkkkkkkkkk"
};
