/* XPM */
static char *xpm_ac_trace[] = {
/* width height num_colors chars_per_pixel */
"     8    11        8            1",
/* colors */
"` c None",
". c #000000",
"# c #ff006a",
"a c #800035",
"b c #000000",
"c c #000000",
"d c #000000",
"e c #000000",
/* pixels */
"```.````",
"``.#.```",
"`.###.``",
".#####.`",
"..#####.",
".#.###..",
".##.#.a.",
"`.##.aa.",
"``.#.a.`",
"```...``",
"````.```"
};
